<svg width="16" height="15" viewBox="0 0 16 15" fill="none" xmlns="http://www.w3.org/2000/svg">
<rect width="16" height="15" fill="#2424BD"/>
<path fill-rule="evenodd" clip-rule="evenodd" d="M12.7162 6.06846C12.5146 6.18657 12.2775 6.32346 12.0292 6.46662C12.0381 6.5798 12.0381 6.69345 12.0292 6.80662L13.5618 6.70462C13.5618 6.70462 13.2939 7.98678 12.3867 7.87404L11.7184 7.78457C11.6622 7.87776 11.5999 7.96742 11.5318 8.05299L12.957 8.7151C12.957 8.7151 12.13 9.62594 11.4571 9.13652C11.2798 9.00768 11.0651 8.84931 10.8439 8.68915C10.7282 8.76753 10.6076 8.83894 10.4827 8.90299L11.347 9.8872C11.347 9.8872 10.2746 10.3659 9.8919 9.69931C9.8135 9.56331 9.72297 9.40315 9.6287 9.23583C9.45768 9.28386 9.28416 9.32329 9.10884 9.35394C9.34497 9.81562 9.63244 10.3793 9.8051 10.722C10.0384 11.1837 9.73417 11.5613 9.14057 11.9693L8.69444 10.5001L8.43684 10.5663L8.71124 12.2439C8.50124 12.3701 8.27257 12.5007 8.02804 12.6394C7.77604 12.5267 7.53804 12.4113 7.32151 12.2932L7.58937 10.5153L7.33084 10.4572L6.88004 12.0256C6.27337 11.6149 5.96444 11.1765 6.21084 10.7166L6.9379 9.36468C6.7452 9.3325 6.5545 9.29008 6.3667 9.23762C6.27337 9.40583 6.18004 9.5651 6.10257 9.70199C5.72084 10.3686 4.6475 9.88989 4.6475 9.88989L5.5127 8.90568C5.38811 8.84079 5.26751 8.7691 5.1515 8.69094C4.9303 8.85468 4.71564 9.01304 4.5383 9.13831C3.86537 9.62773 3.0375 8.71689 3.0375 8.71689L4.46364 8.05389C4.39563 7.96824 4.33329 7.87859 4.27697 7.78547C4.03524 7.81768 3.8047 7.8472 3.60777 7.87494C2.70057 7.98768 2.43457 6.70373 2.43457 6.70373L3.9671 6.80573C3.95824 6.69255 3.95824 6.5789 3.9671 6.46573C3.71604 6.32168 3.47897 6.18478 3.27737 6.06846C2.33284 5.51641 3.0963 4.11436 3.0963 4.11436L5.7339 6.44694C5.29337 6.84689 5.46604 7.75415 6.24164 7.75415C7.3327 7.75415 7.28324 6.25994 6.25937 6.25994C6.19498 6.25965 6.13077 6.26656 6.06804 6.28052L5.98404 6.02283L6.5347 5.73562L6.47217 5.56294C6.47217 5.56294 5.9859 5.53073 5.70124 5.81346L5.46977 4.71294L7.83857 4.96704L7.52031 5.47168L8.01031 6.45589L8.5003 5.47168L8.18671 4.96704L10.4267 4.67446L10.3194 5.81346C10.0814 5.52536 9.52884 5.56294 9.52884 5.56294L9.46631 5.73562L10.0534 6.03446L9.96004 6.28052C9.89629 6.26699 9.8312 6.26009 9.76591 6.25994C8.73924 6.25994 8.69257 7.75415 9.78271 7.75415C10.5667 7.75415 10.7375 6.82899 10.2774 6.43531L12.9028 4.10899C12.9028 4.10899 13.6607 5.51462 12.7162 6.06846ZM7.21697 4.32373C6.0223 2.84204 7.4223 2.60404 7.4223 2.60404L8.00004 3.45225L8.60391 2.5942C8.60391 2.5942 9.91057 2.83667 8.87644 4.32999L7.21697 4.32373ZM7.59031 2.17636C7.74244 1.82652 8.2679 1.87125 8.45924 2.13073L8.00004 2.86799L7.59031 2.17636Z" fill="white"/>
</svg>
